<svg width="41" height="40" viewBox="0 0 41 40" fill="none" xmlns="http://www.w3.org/2000/svg">
<g clip-path="url(#clip0_227_29)">
<path d="M40.704 27.4834C40.4273 26.4722 39.5815 25.7198 38.5471 25.5642V10.3644H39.8683C40.2331 10.3644 40.5289 10.0679 40.5289 9.7022V3.07967C40.5289 2.71362 40.2331 2.41742 39.8683 2.41742H10.8018C10.437 2.41742 10.1412 2.71362 10.1412 3.07967V9.7022C10.1412 10.0679 10.437 10.3644 10.8018 10.3644H12.123V23.6095H11.4624C9.82287 23.6056 8.21685 24.0768 6.83823 24.9663V21.6227C6.83823 21.2567 6.54244 20.9605 6.17763 20.9605H1.55342C1.18861 20.9605 0.892822 21.2567 0.892822 21.6227V36.8545C0.892822 37.2203 1.18861 37.5168 1.55342 37.5168H6.17763C6.54244 37.5168 6.83823 37.2203 6.83823 36.8545V33.5113C8.21717 34.4002 9.82287 34.8713 11.4624 34.8678H22.3095C23.061 34.8665 23.809 34.7675 24.5351 34.5735L38.8377 30.7326C40.245 30.3481 41.0788 28.8968 40.704 27.4834ZM11.4624 3.74192H39.2077V9.03994H11.4624V3.74192ZM13.4442 10.3644H37.2259V25.6781L29.559 27.7392C29.2432 26.9845 28.599 26.4176 27.8117 26.2013L18.9106 23.808C18.4094 23.6758 17.8933 23.6088 17.3749 23.6095H13.4442V10.3644ZM5.51703 36.1923H2.21402V22.285H5.51703V36.1923ZM38.4948 29.453L24.1948 33.294C23.5797 33.4586 22.9462 33.5423 22.3095 33.5433H11.4624C9.88964 33.5468 8.35845 33.0353 7.10241 32.0862L6.83823 31.8876V26.5896L7.10241 26.3908C8.35845 25.4417 9.88964 24.9298 11.4624 24.934H17.3749C17.7785 24.9337 18.1807 24.9861 18.5713 25.0895L27.4694 27.4808C27.9952 27.626 28.38 28.0778 28.44 28.6213C28.4471 28.6485 28.4558 28.6753 28.4665 28.7015C28.4587 28.73 28.4529 28.7588 28.449 28.7882C28.4497 28.8959 28.4352 29.0032 28.4055 29.1067C28.25 29.6839 27.7284 30.0852 27.132 30.0862C27.0156 30.0872 26.9001 30.0723 26.7879 30.0425L21.1728 28.5331C20.9424 28.4645 20.6931 28.5266 20.5215 28.6954C20.3502 28.8642 20.2835 29.1129 20.3476 29.345C20.4118 29.5769 20.5967 29.756 20.8305 29.812L26.4456 31.3221C26.6698 31.3813 26.9011 31.411 27.1333 31.4107C28.321 31.41 29.3619 30.6136 29.6757 29.465C29.7125 29.3321 29.7373 29.1963 29.7506 29.0592L37.8039 26.8942C37.8613 26.8797 37.9236 26.8648 37.9823 26.8551C38.64 26.7701 39.2583 27.1869 39.4283 27.8291C39.458 27.941 39.4728 28.0564 39.4719 28.1722C39.4728 28.7717 39.0722 29.2968 38.4948 29.453Z" fill="#09090A"/>
<path d="M22.0319 13.0135H28.6379C29.0028 13.0135 29.2985 12.7169 29.2985 12.3512C29.2985 11.9852 29.0028 11.689 28.6379 11.689H22.0319C21.6671 11.689 21.3713 11.9852 21.3713 12.3512C21.3713 12.7169 21.6671 13.0135 22.0319 13.0135Z" fill="#09090A"/>
</g>
<defs>
<clipPath id="clip0_227_29">
<path d="M0.892822 0H20.7931C31.8388 0 40.7931 8.95431 40.7931 20C40.7931 31.0457 31.8388 40 20.7931 40H0.892822V0Z" fill="white"/>
</clipPath>
</defs>
</svg>
