<svg width="350" height="65" viewBox="0 0 350 65" fill="none" xmlns="http://www.w3.org/2000/svg">
<path d="M0 0H317.5C335.449 0 350 14.5507 350 32.5C350 50.4493 335.449 65 317.5 65H0V0Z" fill="#CEE0DC"/>
<path d="M133.42 23.96L128.44 38H124.16L119.18 23.96H122.82L126.3 34.56L129.8 23.96H133.42ZM145.369 32.24C145.369 32.56 145.349 32.8933 145.309 33.24H137.569C137.623 33.9333 137.843 34.4667 138.229 34.84C138.629 35.2 139.116 35.38 139.689 35.38C140.543 35.38 141.136 35.02 141.469 34.3H145.109C144.923 35.0333 144.583 35.6933 144.089 36.28C143.609 36.8667 143.003 37.3267 142.269 37.66C141.536 37.9933 140.716 38.16 139.809 38.16C138.716 38.16 137.743 37.9267 136.889 37.46C136.036 36.9933 135.369 36.3267 134.889 35.46C134.409 34.5933 134.169 33.58 134.169 32.42C134.169 31.26 134.403 30.2467 134.869 29.38C135.349 28.5133 136.016 27.8467 136.869 27.38C137.723 26.9133 138.703 26.68 139.809 26.68C140.889 26.68 141.849 26.9067 142.689 27.36C143.529 27.8133 144.183 28.46 144.649 29.3C145.129 30.14 145.369 31.12 145.369 32.24ZM141.869 31.34C141.869 30.7533 141.669 30.2867 141.269 29.94C140.869 29.5933 140.369 29.42 139.769 29.42C139.196 29.42 138.709 29.5867 138.309 29.92C137.923 30.2533 137.683 30.7267 137.589 31.34H141.869ZM153.974 26.72C155.28 26.72 156.32 27.1467 157.094 28C157.88 28.84 158.274 30 158.274 31.48V38H154.874V31.94C154.874 31.1933 154.68 30.6133 154.294 30.2C153.907 29.7867 153.387 29.58 152.734 29.58C152.08 29.58 151.56 29.7867 151.174 30.2C150.787 30.6133 150.594 31.1933 150.594 31.94V38H147.174V26.84H150.594V28.32C150.94 27.8267 151.407 27.44 151.994 27.16C152.58 26.8667 153.24 26.72 153.974 26.72ZM159.97 32.4C159.97 31.2533 160.183 30.2467 160.61 29.38C161.05 28.5133 161.643 27.8467 162.39 27.38C163.137 26.9133 163.97 26.68 164.89 26.68C165.623 26.68 166.29 26.8333 166.89 27.14C167.503 27.4467 167.983 27.86 168.33 28.38V23.2H171.75V38H168.33V36.4C168.01 36.9333 167.55 37.36 166.95 37.68C166.363 38 165.677 38.16 164.89 38.16C163.97 38.16 163.137 37.9267 162.39 37.46C161.643 36.98 161.05 36.3067 160.61 35.44C160.183 34.56 159.97 33.5467 159.97 32.4ZM168.33 32.42C168.33 31.5667 168.09 30.8933 167.61 30.4C167.143 29.9067 166.57 29.66 165.89 29.66C165.21 29.66 164.63 29.9067 164.15 30.4C163.683 30.88 163.45 31.5467 163.45 32.4C163.45 33.2533 163.683 33.9333 164.15 34.44C164.63 34.9333 165.21 35.18 165.89 35.18C166.57 35.18 167.143 34.9333 167.61 34.44C168.09 33.9467 168.33 33.2733 168.33 32.42ZM173.544 32.4C173.544 31.2533 173.758 30.2467 174.184 29.38C174.624 28.5133 175.218 27.8467 175.964 27.38C176.711 26.9133 177.544 26.68 178.464 26.68C179.251 26.68 179.938 26.84 180.524 27.16C181.124 27.48 181.584 27.9 181.904 28.42V26.84H185.324V38H181.904V36.42C181.571 36.94 181.104 37.36 180.504 37.68C179.918 38 179.231 38.16 178.444 38.16C177.538 38.16 176.711 37.9267 175.964 37.46C175.218 36.98 174.624 36.3067 174.184 35.44C173.758 34.56 173.544 33.5467 173.544 32.4ZM181.904 32.42C181.904 31.5667 181.664 30.8933 181.184 30.4C180.718 29.9067 180.144 29.66 179.464 29.66C178.784 29.66 178.204 29.9067 177.724 30.4C177.258 30.88 177.024 31.5467 177.024 32.4C177.024 33.2533 177.258 33.9333 177.724 34.44C178.204 34.9333 178.784 35.18 179.464 35.18C180.144 35.18 180.718 34.9333 181.184 34.44C181.664 33.9467 181.904 33.2733 181.904 32.42ZM192.339 38.16C191.365 38.16 190.499 37.9933 189.739 37.66C188.979 37.3267 188.379 36.8733 187.939 36.3C187.499 35.7133 187.252 35.06 187.199 34.34H190.579C190.619 34.7267 190.799 35.04 191.119 35.28C191.439 35.52 191.832 35.64 192.299 35.64C192.725 35.64 193.052 35.56 193.279 35.4C193.519 35.2267 193.639 35.0067 193.639 34.74C193.639 34.42 193.472 34.1867 193.139 34.04C192.805 33.88 192.265 33.7067 191.519 33.52C190.719 33.3333 190.052 33.14 189.519 32.94C188.985 32.7267 188.525 32.4 188.139 31.96C187.752 31.5067 187.559 30.9 187.559 30.14C187.559 29.5 187.732 28.92 188.079 28.4C188.439 27.8667 188.959 27.4467 189.639 27.14C190.332 26.8333 191.152 26.68 192.099 26.68C193.499 26.68 194.599 27.0267 195.399 27.72C196.212 28.4133 196.679 29.3333 196.799 30.48H193.639C193.585 30.0933 193.412 29.7867 193.119 29.56C192.839 29.3333 192.465 29.22 191.999 29.22C191.599 29.22 191.292 29.3 191.079 29.46C190.865 29.6067 190.759 29.8133 190.759 30.08C190.759 30.4 190.925 30.64 191.259 30.8C191.605 30.96 192.139 31.12 192.859 31.28C193.685 31.4933 194.359 31.7067 194.879 31.92C195.399 32.12 195.852 32.4533 196.239 32.92C196.639 33.3733 196.845 33.9867 196.859 34.76C196.859 35.4133 196.672 36 196.299 36.52C195.939 37.0267 195.412 37.4267 194.719 37.72C194.039 38.0133 193.245 38.16 192.339 38.16Z" fill="#09090A"/>
<g clip-path="url(#clip0_2035_96)">
<path d="M50.6215 39.0022C50.6114 38.948 50.5965 38.8947 50.5769 38.8431C50.5573 38.7923 50.533 38.7432 50.5048 38.6975C50.4767 38.6509 50.4438 38.6078 50.4077 38.5688C50.3717 38.5299 50.3318 38.4944 50.2887 38.4639C50.2464 38.4334 50.201 38.4072 50.1532 38.386C50.1062 38.3649 50.0569 38.3479 50.0067 38.3378C49.9057 38.3158 49.8015 38.3158 49.7013 38.3378C49.6512 38.3479 49.6018 38.3649 49.554 38.386C49.507 38.4072 49.4616 38.4334 49.4193 38.4639C49.3762 38.4944 49.3363 38.5299 49.3003 38.5688C49.2643 38.6078 49.2314 38.6509 49.2032 38.6975C49.1742 38.7432 49.1507 38.7923 49.1311 38.8431C49.1115 38.8947 49.0959 38.948 49.0865 39.0022C49.0763 39.0563 49.0708 39.1122 49.0708 39.1672C49.0708 39.2222 49.0763 39.2781 49.0865 39.3323C49.0959 39.3864 49.1115 39.4397 49.1311 39.4905C49.1507 39.5422 49.1742 39.5912 49.2032 39.6369C49.2314 39.6835 49.2643 39.7267 49.3003 39.7656C49.3363 39.8045 49.3762 39.8401 49.4193 39.8705C49.4616 39.9011 49.507 39.9273 49.554 39.9485C49.6018 39.9696 49.6512 39.9866 49.7013 39.9967C49.7514 40.0077 49.8031 40.0137 49.854 40.0137C49.9049 40.0137 49.9566 40.0077 50.0067 39.9967C50.0569 39.9866 50.1062 39.9696 50.1532 39.9485C50.201 39.9273 50.2464 39.901 50.2887 39.8705C50.3318 39.8401 50.3717 39.8045 50.4077 39.7656C50.4438 39.7267 50.4767 39.6835 50.5048 39.6369C50.533 39.5912 50.5573 39.5422 50.5769 39.4905C50.5965 39.4397 50.6114 39.3864 50.6215 39.3323C50.6317 39.2781 50.6372 39.2222 50.6372 39.1672C50.6372 39.1122 50.6317 39.0563 50.6215 39.0022Z" fill="#09090A"/>
<path d="M73.1342 39.2629C73.1312 39.2545 73.128 39.2461 73.1247 39.2378C72.4039 37.415 70.7133 36.7413 68.7125 37.4797L63.2561 39.1103C62.9406 38.0779 62.1537 37.1994 61.0411 36.7532C61.0342 36.7505 61.0273 36.7478 61.0203 36.7453L55.0225 34.5454C54.5233 33.8481 52.9595 32.0638 50.0317 32.0638C47.9856 32.0638 46.1755 33.5807 45.14 35.234H37.8906C37.4581 35.234 37.1074 35.6129 37.1074 36.0804V46.751C37.1074 47.2184 37.4581 47.5973 37.8906 47.5973H42.5473C42.9799 47.5973 43.3305 47.2184 43.3305 46.751V46.0202H45.5143C45.9469 46.0202 46.2975 45.6413 46.2975 45.1739V44.9303C47.5705 45.0503 47.9892 45.3112 49.1584 46.0398C50.0575 46.6001 51.4165 47.4468 53.8637 48.6359C53.875 48.6414 53.8865 48.6466 53.898 48.6515C54.3677 48.8512 55.2859 49.1648 56.4178 49.1648C57.2057 49.1648 58.0974 49.0128 59.0127 48.5644L71.0733 43.898C71.0948 43.8897 71.1159 43.8804 71.1366 43.8701C72.2892 43.297 74.0069 41.6819 73.1342 39.2629ZM41.7641 45.9045H38.6738V36.9267H41.7641V45.9045ZM44.7311 44.3274H43.3305V36.9267H44.7311V44.3274ZM70.5107 42.3176L58.4555 46.9819C58.4449 46.986 58.4306 46.9921 58.4202 46.9967C58.4096 47.0013 58.399 47.0062 58.3886 47.0114C56.7097 47.8452 55.1137 47.346 54.4883 47.0832C52.1244 45.9338 50.8627 45.1476 49.9409 44.5732C48.6593 43.7746 48.0417 43.3897 46.2975 43.234V36.4173C47.0399 35.1024 48.4796 33.7565 50.0318 33.7565C52.6936 33.7565 53.8214 35.6273 53.8658 35.7028C53.9614 35.8709 54.1084 35.9976 54.2813 36.061L60.5058 38.344C61.4999 38.7472 62.0253 39.6671 61.7838 40.5846C61.6724 41.0083 61.4148 41.3597 61.0588 41.5741C60.7058 41.7866 60.2978 41.8391 59.9088 41.7229L52.8919 39.3199C52.4793 39.1786 52.0393 39.4254 51.9086 39.871C51.7779 40.3166 52.0063 40.7923 52.4187 40.9335L59.4478 43.3407C59.4553 43.3432 59.4627 43.3457 59.4702 43.3479C59.7508 43.4342 60.0366 43.4768 60.3205 43.4768C60.8404 43.4768 61.3546 43.3337 61.8212 43.0527C62.5428 42.6183 63.0646 41.9062 63.2905 41.0476C63.3085 40.979 63.3244 40.9104 63.3383 40.8419L69.2188 39.0815C70.0681 38.768 71.183 38.655 71.6794 39.8904C72.1932 41.3408 70.8578 42.1387 70.5107 42.3176Z" fill="#09090A"/>
<path d="M65.2291 16.9665C65.219 16.9123 65.2041 16.859 65.1837 16.8074C65.1641 16.7566 65.1406 16.7075 65.1117 16.6618C65.0835 16.6152 65.0506 16.5721 65.0145 16.5331C64.9785 16.4942 64.9386 16.4587 64.8955 16.4282C64.8532 16.3977 64.8078 16.3715 64.7608 16.3503C64.713 16.3292 64.6637 16.3122 64.6143 16.3021C64.5133 16.2801 64.4091 16.2801 64.3081 16.3021C64.258 16.3122 64.2086 16.3292 64.1616 16.3503C64.1139 16.3715 64.0684 16.3977 64.0261 16.4282C63.9831 16.4587 63.9431 16.4942 63.9071 16.5331C63.8711 16.5721 63.8382 16.6152 63.81 16.6618C63.7818 16.7075 63.7575 16.7566 63.7379 16.8074C63.7183 16.859 63.7027 16.9123 63.6933 16.9665C63.6831 17.0206 63.6776 17.0765 63.6776 17.1315C63.6776 17.1865 63.6831 17.2424 63.6933 17.2966C63.7027 17.3507 63.7183 17.404 63.7379 17.4548C63.7575 17.5065 63.7818 17.5555 63.81 17.6012C63.8382 17.6478 63.8711 17.691 63.9071 17.7299C63.9431 17.7688 63.9831 17.8044 64.0261 17.8348C64.0684 17.8653 64.1139 17.8915 64.1616 17.9127C64.2086 17.9339 64.258 17.9499 64.3081 17.9609C64.3582 17.9719 64.4099 17.9779 64.4608 17.9779C64.5117 17.9779 64.5634 17.9719 64.6143 17.9609C64.6637 17.9499 64.713 17.9339 64.7608 17.9127C64.8078 17.8915 64.8532 17.8653 64.8955 17.8348C64.9386 17.8044 64.9785 17.7688 65.0145 17.7299C65.0506 17.691 65.0835 17.6478 65.1117 17.6012C65.1406 17.5555 65.1641 17.5065 65.1837 17.4548C65.2041 17.404 65.219 17.3507 65.2291 17.2966C65.2393 17.2424 65.244 17.1865 65.244 17.1315C65.244 17.0765 65.2393 17.0206 65.2291 16.9665Z" fill="#09090A"/>
<path d="M76.4243 11.7017H71.7676C71.335 11.7017 70.9844 12.0807 70.9844 12.5481V13.2788H68.8006C68.368 13.2788 68.0174 13.6577 68.0174 14.1252V14.3688C66.7444 14.2487 66.3257 13.9878 65.1566 13.2593C64.2574 12.699 62.8985 11.8522 60.4512 10.6632C60.4399 10.6576 60.4284 10.6524 60.4168 10.6475C59.6202 10.3088 57.5324 9.64239 55.3025 10.7344L52.1509 11.9539L49.4944 9.0832C49.1885 8.7527 48.6926 8.7527 48.3868 9.0832L39.6652 18.5079C39.3831 18.8129 39.329 19.3416 39.6652 19.7049L54.5685 35.81C54.807 36.0678 55.3654 36.1457 55.6762 35.81L63.6386 27.2056C63.8456 27.2249 64.0605 27.2353 64.2831 27.2353C66.3293 27.2353 68.1393 25.7185 69.1748 24.0652H76.4243C76.8568 24.0652 77.2075 23.6863 77.2075 23.2188V12.5481C77.2075 12.0807 76.8568 11.7017 76.4243 11.7017ZM48.9405 10.8786L50.7256 12.8076C50.195 13.1622 49.5815 13.352 48.9405 13.352C48.2994 13.352 47.686 13.1623 47.1554 12.8076L48.9405 10.8786ZM43.1117 21.0355L41.3267 19.1064L43.1117 17.1774C43.4399 17.7508 43.6155 18.4138 43.6155 19.1064C43.6155 19.7991 43.44 20.462 43.1117 21.0355ZM55.1224 34.0145L53.3376 32.0858C54.4273 31.3592 55.8173 31.3592 56.9071 32.0858L55.1224 34.0145ZM58.0355 30.8666C56.3048 29.5099 53.94 29.5099 52.2093 30.8666L44.2401 22.2548C44.8517 21.3458 45.1819 20.2539 45.1819 19.1064C45.1819 17.9588 44.8518 16.867 44.2401 15.9581L46.0271 14.027C46.8683 14.6879 47.8786 15.0448 48.9406 15.0448C50.0025 15.0448 51.0129 14.6879 51.854 14.027L53.548 15.8576C53.1825 15.9159 52.826 16.0461 52.4937 16.2462C51.9323 16.5843 51.4918 17.0905 51.2175 17.7029C50.3341 17.8797 49.5162 18.3419 48.8746 19.0351C47.1339 20.9163 47.1339 23.9769 48.8746 25.858C49.7449 26.7985 50.8882 27.2688 52.0315 27.2688C53.1747 27.2688 54.318 26.7986 55.1884 25.858C55.7547 25.2461 56.1514 24.494 56.3501 23.6744L58.9945 24.6443C58.6968 26.1345 59.0017 27.7023 59.8241 28.9338L58.0355 30.8666ZM53.2738 22.5458C53.2807 22.5485 53.2876 22.5512 53.2946 22.5538L54.8607 23.1282C54.7424 23.705 54.4748 24.2353 54.0808 24.6611C52.9508 25.8821 51.1122 25.8822 49.9823 24.6611C48.8523 23.4401 48.8523 21.4533 49.9823 20.2321C50.2549 19.9374 50.5765 19.7071 50.927 19.551C51.0716 20.8512 51.9379 22.0101 53.2738 22.5458ZM60.9526 27.7142C60.6503 27.1818 60.4793 26.5742 60.4523 25.9541C60.8274 26.2472 61.2859 26.5343 61.8335 26.7623L60.9526 27.7142ZM68.0173 22.8814C67.275 24.1965 65.8353 25.5424 64.2831 25.5424C63.9927 25.5424 63.7206 25.5201 63.4661 25.4803C63.4651 25.4801 63.4641 25.48 63.463 25.4798C61.7716 25.2143 60.8618 24.1755 60.5619 23.7641C60.5459 23.7388 60.4779 23.6425 60.4678 23.6265C60.3765 23.4503 60.2269 23.3086 60.0361 23.2386L53.809 20.9548C52.8153 20.5517 52.29 19.6322 52.5308 18.7151C52.5309 18.7145 52.5311 18.7139 52.5313 18.7133C52.5315 18.7126 52.5316 18.7118 52.5318 18.7112C52.6437 18.2888 52.9008 17.9385 53.256 17.7246C53.6089 17.5121 54.0169 17.4594 54.406 17.5759L61.423 19.9788C61.8354 20.1203 62.2756 19.8733 62.4062 19.4277C62.5368 18.9821 62.3085 18.5064 61.8962 18.3652L56.3155 16.4541L56.2667 16.4015C56.2663 16.401 56.2658 16.4004 56.2652 16.3999L53.376 13.2776L55.8594 12.3167C55.8678 12.3134 55.8781 12.3093 55.8864 12.3056C55.8885 12.3047 55.8926 12.303 55.8946 12.3021C55.9053 12.2974 55.9158 12.2925 55.9262 12.2873C57.6051 11.4535 59.2009 11.9526 59.8265 12.2155C62.1904 13.3649 63.4522 14.1511 64.374 14.7255C65.6556 15.5242 66.2732 15.9091 68.0173 16.0647V22.8814ZM70.9844 22.3723H69.5838V14.9715H70.9844V22.3723ZM75.6411 22.3723H72.5508V13.3944H75.6411V22.3723Z" fill="#09090A"/>
</g>
<defs>
<clipPath id="clip0_2035_96">
<path d="M37.1074 5.83331H55.5407C67.5069 5.83331 77.2074 15.5338 77.2074 27.5C77.2074 39.4661 67.5069 49.1666 55.5408 49.1666H37.1074V5.83331Z" fill="white"/>
</clipPath>
</defs>
</svg>
